<?xml version="1.0" encoding="UTF-8"?>
<svg id="Layer_1" data-name="Layer 1" xmlns="http://www.w3.org/2000/svg" viewBox="0 0 147.03 120.57">
  <defs>
    <style>
      .cls-1 {
        fill: #fff;
      }
    </style>
  </defs>
  <path class="cls-1" d="M.77,27.06C.77,5.52,3.91,1.3,11.35,1.3c7.82,0,9.74,4.83,9.74,17.48,0,2.22-.15,5.06-.23,6.59h-7.36c.08-1.53.15-4.06.15-6.29,0-8.28-.23-9.51-1.76-9.51-1.69,0-2.22,1.53-2.22,17.48s.31,17.48,2.15,17.48c1.46,0,1.84-1.38,1.84-9.2,0-1.46-.08-3.45-.15-4.6h7.44c.08,1.15.15,2.91.15,4.68,0,12.96-2.53,17.4-9.89,17.4C2.99,52.82.77,48.3.77,27.06Z"/>
  <path class="cls-1" d="M24.22,42.55c0-6.98,2.3-10.73,8.43-10.73h3.3v-5.83c0-4.06-.46-5.21-1.69-5.21-1.46,0-1.84,1.46-1.84,5.6,0,1,.08,2.45.15,3.3h-7.21c-.08-.54-.23-2.38-.23-3.76,0-8.2,2.76-11.88,9.66-11.88s9.43,4.22,9.43,12.73v25.53h-8.28c.15-1.76.38-4.68.38-6.44h-.08c-.46,4.29-1.92,6.82-5.6,6.82-5.29,0-6.44-4.75-6.44-10.12ZM35.95,38.33v-1.61h-1.53c-2.3,0-2.61,1.61-2.61,4.91,0,2.99.54,4.29,1.76,4.29,1.38,0,2.38-1.92,2.38-7.59Z"/>
  <path class="cls-1" d="M47.3,38.64h7.21c0,6.82.46,7.74,1.92,7.74,1.23,0,1.69-1,1.69-4.14,0-2.53-.08-3.6-.84-4.37s-2.15-1.46-3.45-2.15c-1.53-.84-3.37-1.84-4.6-3.3s-1.92-4.14-1.92-7.05c0-7.44,2.91-11.35,9.35-11.35,6.98,0,9.12,2.84,9.12,14.26h-7.05c0-7.05-.15-7.97-1.69-7.97-1.3,0-1.61,1.23-1.61,4.06s.23,3.99,1,4.68c.61.61,2.3,1.46,3.83,2.22,1.46.77,3.3,1.76,4.37,3.14,1.3,1.69,1.76,4.22,1.76,7.05,0,7.51-2.15,11.19-9.66,11.19s-9.43-4.06-9.43-14.03Z"/>
  <path class="cls-1" d="M69.38,42.55c0-6.98,2.3-10.73,8.43-10.73h3.3v-5.83c0-4.06-.46-5.21-1.69-5.21-1.46,0-1.84,1.46-1.84,5.6,0,1,.08,2.45.15,3.3h-7.21c-.08-.54-.23-2.38-.23-3.76,0-8.2,2.76-11.88,9.66-11.88s9.43,4.22,9.43,12.73v25.53h-8.28c.15-1.76.38-4.68.38-6.44h-.08c-.46,4.29-1.92,6.82-5.6,6.82-5.29,0-6.44-4.75-6.44-10.12ZM81.11,38.33v-1.61h-1.53c-2.3,0-2.61,1.61-2.61,4.91,0,2.99.54,4.29,1.76,4.29,1.38,0,2.38-1.92,2.38-7.59Z"/>
  <path class="cls-1" d="M102.41,32.89c0-14.41,2.68-18.86,7.59-18.86,3.14,0,4.98,1.61,5.6,5.14h.08V0h8.28v52.29h-8.28c.31-2.53.46-4.68.61-7.59h-.08c-.84,5.52-2.38,7.97-6.13,7.97-5.29,0-7.67-5.14-7.67-19.78ZM115.68,34.5v-3.45c0-6.52-.92-9.66-2.61-9.66-1.53,0-2.38,1.84-2.38,11.58s.69,12.34,2.38,12.34,2.61-4.45,2.61-10.81Z"/>
  <path class="cls-1" d="M147.03,34.58h-11.19c0,8.66.61,11.35,2.22,11.35,1.38,0,1.76-1.38,1.76-7.82h7.21c0,10.35-2.53,14.57-9.51,14.57-8.43,0-9.97-7.13-9.97-19.01,0-15.72,3.68-19.63,10.2-19.63s9.28,3.83,9.28,17.02v3.53ZM139.83,28.67c0-6.59-.31-7.9-1.76-7.9-1.3,0-1.99,1.07-2.15,8.89h3.91v-1Z"/>
  <path class="cls-1" d="M13.72,109.99h-4.14l-.61,10.2H0l6.21-50.45h12.42l6.36,50.45h-10.66l-.61-10.2ZM13.34,103.4l-1.46-24.76h-.38l-1.53,24.76h3.37Z"/>
  <path class="cls-1" d="M27.75,82.31h8.28l-.46,8.74h.15c.61-5.37,1.99-9.12,5.98-9.12,3.68,0,5.6,2.38,5.6,13.57,0,3.76-.23,8.13-.38,10.35h-7.21c.15-2.15.38-6.29.38-9.58,0-4.91-.54-6.21-1.46-6.21-1.38,0-2.61,2.84-2.61,11.81v18.32h-8.28v-37.87Z"/>
  <path class="cls-1" d="M51.74,108.99v-18.86h-3.22v-7.82h2.38c1.3,0,1.92-.69,2.07-3.3l.23-5.29h6.82v8.59h4.83v7.82h-4.83v18.02c0,3.37.46,4.52,2.45,4.52.84,0,1.46-.08,1.84-.15v7.44c-.61.23-2.07.54-4.06.54-6.44,0-8.51-3.68-8.51-11.5Z"/>
  <path class="cls-1" d="M68.07,71.35h8.43v8.36h-8.43v-8.36ZM68.15,82.31h8.28v37.87h-8.28v-37.87Z"/>
  <path class="cls-1" d="M80.03,106.54h7.21c0,6.82.46,7.74,1.92,7.74,1.23,0,1.69-1,1.69-4.14,0-2.53-.08-3.6-.84-4.37-.77-.77-2.15-1.46-3.45-2.15-1.53-.84-3.37-1.84-4.6-3.3s-1.92-4.14-1.92-7.05c0-7.44,2.91-11.35,9.35-11.35,6.98,0,9.12,2.84,9.12,14.26h-7.05c0-7.05-.15-7.97-1.69-7.97-1.3,0-1.61,1.23-1.61,4.06s.23,3.99,1,4.68c.61.61,2.3,1.46,3.83,2.22,1.46.77,3.3,1.76,4.37,3.14,1.3,1.69,1.76,4.22,1.76,7.05,0,7.51-2.15,11.19-9.66,11.19s-9.43-4.06-9.43-14.03Z"/>
  <path class="cls-1" d="M103.26,108.99v-18.86h-3.22v-7.82h2.38c1.3,0,1.92-.69,2.07-3.3l.23-5.29h6.82v8.59h4.83v7.82h-4.83v18.02c0,3.37.46,4.52,2.45,4.52.84,0,1.46-.08,1.84-.15v7.44c-.61.23-2.07.54-4.06.54-6.44,0-8.51-3.68-8.51-11.5Z"/>
  <path class="cls-1" d="M137.14,102.48h-11.19c0,8.66.61,11.35,2.22,11.35,1.38,0,1.76-1.38,1.76-7.82h7.21c0,10.35-2.53,14.57-9.51,14.57-8.43,0-9.97-7.13-9.97-19.01,0-15.72,3.68-19.63,10.2-19.63s9.28,3.83,9.28,17.02v3.53ZM129.17,80.55h-5.37l2.91-10.73h7.28l-4.83,10.73ZM129.94,96.57c0-6.59-.31-7.9-1.76-7.9-1.3,0-1.99,1.07-2.15,8.89h3.91v-1Z"/>
</svg>